<?xml version="1.0" encoding="UTF-8"?>
<svg class="bi bi-eye" viewBox="0 0 16 16" xmlns="http://www.w3.org/2000/svg">
<g class="layer">
<title>Layer 1</title>
<path d="m16 8s-3-5.5-8-5.5-8 5.5-8 5.5 3 5.5 8 5.5 8-5.5 8-5.5zm-14.83 0a13.13 13.13 0 0 1 1.66-2.04c1.29-1.29 3.05-2.46 5.17-2.46s3.88 1.17 5.17 2.46a13.13 13.13 0 0 1 1.66 2.04c-0.06 0.09-0.12 0.18-0.2 0.29-0.33 0.48-0.83 1.12-1.46 1.75-1.29 1.29-3.05 2.46-5.17 2.46s-3.88-1.17-5.17-2.46a13.13 13.13 0 0 1-1.66-2.04z"/>
<path d="m8 5.5a2.5 2.5 0 1 0 0 5 2.5 2.5 0 0 0 0-5zm-3.5 2.5a3.5 3.5 0 1 1 7 0 3.5 3.5 0 0 1-7 0z"/>
<path d="m7.79 7.12c-0.4 1.27 0.66 1.76 1.01 0.66l-1.22 0.07-0.63 1.06" fill="none" stroke="null" stroke-dasharray="null" stroke-linecap="null" stroke-linejoin="null" stroke-opacity="null"/>
<ellipse cx="7.98" cy="8.07" rx="2.97" ry="2.95" stroke="null" stroke-dasharray="null" stroke-linecap="null" stroke-linejoin="null" stroke-opacity="null"/>
<ellipse cx="6.29" cy="6.16" rx="1.76" ry="1.82" fill="#fff" stroke="null" stroke-dasharray="null" stroke-linecap="null" stroke-linejoin="null" stroke-opacity="null"/>
</g>
</svg>